<svg version="1" xmlns="http://www.w3.org/2000/svg" width="344" height="344" viewBox="0 0 258 258"><path d="M120.8 1.5c-.2.1-3.6.5-7.5.9C35.9 9-14.9 84.9 4.6 164.8c9.7 39.8 42 73.8 82.3 86.7 15.5 5 22.8 6 41.6 6 16.6 0 21.5-.6 34.5-4l8-2c.8-.2 3.5-.8 6-1.4 2.5-.5 5.9-1.2 7.5-1.5 1.7-.3 4.1-.8 5.5-1.1 3.7-.8 19.8-.9 25.3-.1 2.6.3 8 1.8 12 3.2 14.2 5.1 18.5 5.6 23.7 2.9 4.4-2.3 4.4-5.9.1-16.3-1.6-3.9-2.8-7.2-2.6-7.2.3 0 .1-1-.4-2.3-2.1-5.5-3-22.4-1.6-31.7.6-4.9 2.2-14.3 2.9-17.5.3-1.1 1.6-7.4 3-14s2.8-13.4 3.2-15c1.4-6.3 1.3-33.9-.1-42.5-5.4-32-22.2-61.1-45.4-78.4-3.1-2.2-5.7-4.4-5.9-4.9-.2-.4-.8-.7-1.4-.7-.5 0-2.2-.9-3.7-1.9-12.1-8.6-35.5-16.5-55.4-18.7-5.9-.6-22.5-1.3-22.9-.9z"/></svg>